# This file uses centimeters as units for non-parametric coordinates.

mtllib emptyRoom.mtl
v -50.000000 -0.078905 99.756744
v 50.000000 -0.078905 99.756744
v -50.000000 99.921097 99.756744
v 50.000000 99.921097 99.756744
v -50.000000 99.921097 -0.243255
v 50.000000 99.921097 -0.243255
v -50.000000 -0.078905 -0.243255
v 50.000000 -0.078905 -0.243255
v -17.500000 99.000000 60.621960
v 17.500000 99.000000 60.621960
v -17.500000 99.000000 40.621960
v 17.500000 99.000000 40.621960
vt 0.375000 0.250000
vt 0.375000 0.500000
vt 0.625000 0.250000
vt 0.625000 0.500000
vt 0.375000 0.750000
vt 0.625000 0.750000
vt 0.375000 1.000000
vt 0.625000 1.000000
vt 0.625000 0.000000
vt 0.875000 0.000000
vt 0.875000 0.250000
vt 0.125000 0.000000
vt 0.125000 0.250000
vt 0.375000 0.000000
vt 0.000000 0.000000
vt 0.000000 0.571429
vt 1.000000 0.000000
vt 1.000000 0.571429
vn 0.000000 -1.000000 0.000000
vn 0.000000 -1.000000 0.000000
vn 0.000000 -1.000000 0.000000
vn 0.000000 -1.000000 0.000000
vn 0.000000 -1.000000 0.000000
vn 0.000000 -1.000000 0.000000
vn 0.000000 0.000000 1.000000
vn 0.000000 0.000000 1.000000
vn 0.000000 0.000000 1.000000
vn 0.000000 0.000000 1.000000
vn 0.000000 0.000000 1.000000
vn 0.000000 0.000000 1.000000
vn 0.000000 1.000000 0.000000
vn 0.000000 1.000000 0.000000
vn 0.000000 1.000000 0.000000
vn 0.000000 1.000000 0.000000
vn 0.000000 1.000000 0.000000
vn 0.000000 1.000000 0.000000
vn -1.000000 0.000000 0.000000
vn -1.000000 0.000000 0.000000
vn -1.000000 0.000000 0.000000
vn -1.000000 0.000000 0.000000
vn -1.000000 0.000000 0.000000
vn -1.000000 0.000000 0.000000
vn 1.000000 0.000000 0.000000
vn 1.000000 0.000000 0.000000
vn 1.000000 0.000000 0.000000
vn 1.000000 0.000000 0.000000
vn 1.000000 0.000000 0.000000
vn 1.000000 0.000000 0.000000
vn 0.000000 -1.000000 0.000000
vn 0.000000 -1.000000 0.000000
vn 0.000000 -1.000000 0.000000
vn 0.000000 -1.000000 0.000000
vn 0.000000 -1.000000 0.000000
vn 0.000000 -1.000000 0.000000
s off
usemtl lambert5SG
f 3/1/1 5/2/2 4/3/3
f 5/2/4 6/4/5 4/3/6
f 5/2/7 7/5/8 6/4/9
f 7/5/10 8/6/11 6/4/12
f 7/5/13 1/7/14 8/6/15
f 1/7/16 2/8/17 8/6/18
usemtl lambert3SG
f 2/9/19 4/3/20 8/10/21
f 4/3/22 6/11/23 8/10/24
usemtl lambert2SG
f 7/12/25 5/13/26 1/14/27
f 5/13/28 3/1/29 1/14/30
usemtl lambert4SG
f 9/15/31 11/16/32 10/17/33
f 11/16/34 12/18/35 10/17/36
