# This file uses centimeters as units for non-parametric coordinates.

mtllib staircase.mtl
v -50.000000 -0.078905 99.756745
v 50.000000 -0.078905 99.756745
v -50.000000 99.921095 99.756745
v 50.000000 99.921095 99.756745
v -50.000000 99.921095 -0.243255
v 50.000000 99.921095 -0.243255
v -50.000000 -0.078905 -0.243255
v 50.000000 -0.078905 -0.243255
vt 0.375000 0.000000
vt 0.625000 0.000000
vt 0.375000 0.250000
vt 0.625000 0.250000
vt 0.375000 0.500000
vt 0.625000 0.500000
vt 0.375000 0.750000
vt 0.625000 0.750000
vt 0.375000 1.000000
vt 0.625000 1.000000
vt 0.875000 0.000000
vt 0.875000 0.250000
vt 0.125000 0.000000
vt 0.125000 0.250000
vn 0.000000 -1.000000 0.000000
vn 0.000000 -1.000000 0.000000
vn 0.000000 -1.000000 0.000000
vn 0.000000 -1.000000 0.000000
vn 0.000000 0.000000 1.000000
vn 0.000000 0.000000 1.000000
vn 0.000000 0.000000 1.000000
vn 0.000000 0.000000 1.000000
vn 0.000000 1.000000 0.000000
vn 0.000000 1.000000 0.000000
vn 0.000000 1.000000 0.000000
vn 0.000000 1.000000 0.000000
vn -1.000000 0.000000 0.000000
vn -1.000000 0.000000 0.000000
vn -1.000000 0.000000 0.000000
vn -1.000000 0.000000 0.000000
vn 1.000000 0.000000 0.000000
vn 1.000000 0.000000 0.000000
vn 1.000000 0.000000 0.000000
vn 1.000000 0.000000 0.000000
usemtl lambert5SG
f 3/3/1 5/5/2 4/4/3
f 5/5/2 6/6/4 4/4/3
f 5/5/5 7/7/6 6/6/7
f 7/7/6 8/8/8 6/6/7
f 7/7/9 1/9/10 8/8/11
f 1/9/10 2/10/12 8/8/11
usemtl lambert3SG
f 2/2/13 4/4/14 8/11/15
f 4/4/14 6/12/16 8/11/15
usemtl lambert2SG
f 7/13/17 5/14/18 1/1/19
f 5/14/18 3/3/20 1/1/19
v -17.500000 99.000000 60.621958
v 17.500000 99.000000 60.621958
v -17.500000 99.000000 40.621958
v 17.500000 99.000000 40.621958
vt 0.000000 0.000000
vt 1.000000 0.000000
vt 0.000000 0.571429
vt 1.000000 0.571429
vn 0.000000 -1.000000 -0.000000
vn 0.000000 -1.000000 -0.000000
vn 0.000000 -1.000000 -0.000000
vn 0.000000 -1.000000 -0.000000
usemtl lambert4SG
f 9/15/21 11/17/22 10/16/23
f 11/17/22 12/18/24 10/16/23
v -25.222138 -0.578947 48.750668
v 3.124489 -0.578947 39.535914
v -25.222138 64.668238 48.750668
v 3.124489 64.668238 39.535914
v -34.778180 64.668238 19.354165
v -6.431552 64.668238 10.139411
v -34.778180 -0.578947 19.354165
v -6.431552 -0.578947 10.139411
vt 0.375000 0.000000
vt 0.625000 0.000000
vt 0.375000 0.250000
vt 0.625000 0.250000
vt 0.375000 0.500000
vt 0.625000 0.500000
vt 0.375000 0.750000
vt 0.625000 0.750000
vt 0.375000 1.000000
vt 0.625000 1.000000
vt 0.875000 0.000000
vt 0.875000 0.250000
vt 0.125000 0.000000
vt 0.125000 0.250000
vn 0.309150 0.000000 0.951013
vn 0.309150 0.000000 0.951013
vn 0.309150 0.000000 0.951013
vn 0.309150 0.000000 0.951013
vn 0.000000 1.000000 0.000000
vn 0.000000 1.000000 0.000000
vn 0.000000 1.000000 0.000000
vn 0.000000 1.000000 0.000000
vn -0.309150 0.000000 -0.951013
vn -0.309150 0.000000 -0.951013
vn -0.309150 0.000000 -0.951013
vn -0.309150 0.000000 -0.951013
vn 0.000000 -1.000000 0.000000
vn 0.000000 -1.000000 0.000000
vn 0.000000 -1.000000 0.000000
vn 0.000000 -1.000000 0.000000
vn 0.951013 0.000000 -0.309150
vn 0.951013 0.000000 -0.309150
vn 0.951013 0.000000 -0.309150
vn 0.951013 0.000000 -0.309150
vn -0.951013 0.000000 0.309150
vn -0.951013 0.000000 0.309150
vn -0.951013 0.000000 0.309150
vn -0.951013 0.000000 0.309150
usemtl lambert5SG
f 13/19/25 14/20/26 15/21/27
f 15/21/27 14/20/26 16/22/28
f 15/21/29 16/22/30 17/23/31
f 17/23/31 16/22/30 18/24/32
f 17/23/33 18/24/34 19/25/35
f 19/25/35 18/24/34 20/26/36
f 19/25/37 20/26/38 13/27/39
f 13/27/39 20/26/38 14/28/40
f 14/20/41 20/29/42 16/22/43
f 16/22/43 20/29/42 18/30/44
f 19/31/45 13/19/46 17/32/47
f 17/32/47 13/19/46 15/21/48
v -2.121220 -0.565683 58.202125
v 23.698684 -0.565683 73.094255
v -2.121220 31.290722 58.202125
v 23.698684 31.290722 73.094255
v 13.322470 31.290722 31.425928
v 39.142375 31.290722 46.318058
v 13.322470 -0.565683 31.425928
v 39.142375 -0.565683 46.318058
vt 0.375000 0.000000
vt 0.625000 0.000000
vt 0.375000 0.250000
vt 0.625000 0.250000
vt 0.375000 0.500000
vt 0.625000 0.500000
vt 0.375000 0.750000
vt 0.625000 0.750000
vt 0.375000 1.000000
vt 0.625000 1.000000
vt 0.875000 0.000000
vt 0.875000 0.250000
vt 0.125000 0.000000
vt 0.125000 0.250000
vn -0.499623 0.000000 0.866243
vn -0.499623 0.000000 0.866243
vn -0.499623 0.000000 0.866243
vn -0.499623 0.000000 0.866243
vn 0.000000 1.000000 0.000000
vn 0.000000 1.000000 0.000000
vn 0.000000 1.000000 0.000000
vn 0.000000 1.000000 0.000000
vn 0.499623 0.000000 -0.866243
vn 0.499623 0.000000 -0.866243
vn 0.499623 0.000000 -0.866243
vn 0.499623 0.000000 -0.866243
vn 0.000000 -1.000000 0.000000
vn 0.000000 -1.000000 0.000000
vn 0.000000 -1.000000 0.000000
vn 0.000000 -1.000000 0.000000
vn 0.866243 0.000000 0.499623
vn 0.866243 0.000000 0.499623
vn 0.866243 0.000000 0.499623
vn 0.866243 0.000000 0.499623
vn -0.866243 0.000000 -0.499623
vn -0.866243 0.000000 -0.499623
vn -0.866243 0.000000 -0.499623
vn -0.866243 0.000000 -0.499623
f 21/33/49 22/34/50 23/35/51
f 23/35/51 22/34/50 24/36/52
f 23/35/53 24/36/54 25/37/55
f 25/37/55 24/36/54 26/38/56
f 25/37/57 26/38/58 27/39/59
f 27/39/59 26/38/58 28/40/60
f 27/39/61 28/40/62 21/41/63
f 21/41/63 28/40/62 22/42/64
f 22/34/65 28/43/66 24/36/67
f 24/36/67 28/43/66 26/44/68
f 27/45/69 21/33/70 25/46/71
f 25/46/71 21/33/70 23/35/72
